<svg width="293" height="105" viewBox="0 0 293 105" fill="none" xmlns="http://www.w3.org/2000/svg">
<path d="M21.24 38H17.28L17.36 35.2L9.44 27.24L12.12 24.16H17.28V13.84H7.92V38H3.96V17.24L7.44 13.84H3.48V10.36H17.76L21.24 13.84V23.68L17.76 27.16H14.52V27.68L21.24 34.32V38ZM41.5006 34.52L38.0606 38H30.6606L27.2206 34.52V20.72L30.6606 17.24H38.0606L41.5006 20.72V34.52ZM37.5806 34.52V20.72H31.1806V34.52H37.5806ZM61.9303 38H58.0103V35.04L55.1303 38H51.0903L47.6503 34.52V20.72L51.0903 17.24H58.0103V10.32L61.9303 6.4V38ZM58.0103 34.52V17.72L54.9703 20.72H51.6103V34.52H58.0103ZM81.8297 20.72L77.8697 24.72V20.72H72.4697V34.52H81.3497V38H71.9497L68.5097 34.52V20.72L71.9497 17.24H78.3497L81.8297 20.72ZM100.267 38H96.3066V20.72H89.8666V38H85.9066V9.92L89.8666 6V20.24L92.7866 17.24H96.7866L100.267 20.72V38ZM120.837 38H109.997L106.557 34.52V20.72L109.997 17.24H117.397L120.837 20.72V27.64L117.397 31.08H110.997L114.517 27.64H116.917V20.72H110.517V34.52H120.837V38ZM140.729 38H136.809V20.72H130.409V38H126.449V17.24H130.409V20.24L133.329 17.24H137.289L140.729 20.72V38ZM151.585 26.04L161.465 16.28V20.52L157.985 23.96L161.465 27.48V38H157.545V26.64H151.585V38H147.625V9.88L151.585 5.92V26.04ZM181.032 34.52L177.592 38H170.192L166.752 34.52V20.72L170.192 17.24H177.592L181.032 20.72V34.52ZM177.112 34.52V20.72H170.712V34.52H177.112ZM214.216 37.96H206.576L199.856 13.88H196.456L198.936 16.24V37.96H194.976V10.32H202.656L209.296 34.48H212.736L210.256 31.96V10.32H214.216V37.96ZM225.604 13.84H221.644V9.88H225.604V13.84ZM225.604 38H221.644V20.28L225.604 16.28V38ZM236.663 26.04L246.543 16.28V20.52L243.063 23.96L246.543 27.48V38H242.623V26.64H236.663V38H232.703V9.88L236.663 5.92V26.04ZM256.19 13.84H252.23V9.88H256.19V13.84ZM256.19 38H252.23V20.28L256.19 16.28V38ZM273.209 17.24L269.729 20.72H267.249V34.52H272.169V38H266.769L263.289 34.52V20.72H258.369L261.849 17.24H263.289V14.32L267.249 10.36V17.24H273.209ZM289.495 38H285.535V35.04L282.575 38H278.615L275.175 34.52V27.64L278.615 24.16H285.135L281.855 27.6H279.095V34.52H285.535V20.72H274.655L277.615 17.24H286.055L289.495 20.72V38Z" fill="url(#paint0_linear_506_3)"/>
<line y1="-0.5" x2="38.6792" y2="-0.5" transform="matrix(-0.766062 0.642767 -0.606476 -0.795102 131.631 55.7637)" stroke="#01B0B0"/>
<line y1="-0.5" x2="37.8062" y2="-0.5" transform="matrix(0.783751 0.621075 -0.584512 0.811385 102 80.625)" stroke="#01B0B0"/>
<line y1="-0.5" x2="38.6792" y2="-0.5" transform="matrix(0.763178 -0.64653 0.610027 0.792109 161.37 103.487)" stroke="#035E5E"/>
<line y1="-0.5" x2="37.8062" y2="-0.5" transform="matrix(-0.786521 -0.617211 0.580876 -0.814253 190.889 78.4805)" stroke="#035E5E"/>
<line y1="-0.5" x2="37.8062" y2="-0.5" transform="matrix(0.783751 0.621075 -0.584512 0.811385 102 80.625)" stroke="#01B0B0"/>
<line y1="-0.5" x2="44.7227" y2="-0.5" transform="matrix(0.412248 -0.911071 0.895234 0.445597 136.24 99.2715)" stroke="#01B0B0"/>
<defs>
<linearGradient id="paint0_linear_506_3" x1="0" y1="24.5" x2="293" y2="24.5" gradientUnits="userSpaceOnUse">
<stop stop-color="#01B0B0"/>
<stop offset="1" stop-color="#BEC9F1"/>
</linearGradient>
</defs>
</svg>
